PathFileType  4	(X/Y/Z) C:\Users\antoi\Documents\MyRepositories\mobilecap\ResultsAnalysis
DataRate	CameraRate	NumFrames	NumMarkers	Units	OrigDataRate	OrigDataStartFrame	OrigNumFrames
100.0	100.0	4	51	mm	100.0	66	261
Frame#	Time	r_knee			r_shank_antsup			r_ankle			r_calc			r_5meta			r_toe			L_knee			L_shank_antsup			L_ankle			L_calc			L_5meta			L_toe			r_sh2			r_sh3			r_sh4			L_sh2			L_sh3			r_thigh1			r_thigh2			r_thigh3			r_thigh4			r_thigh5			L_thigh1			L_thigh2			L_thigh3			L_thigh4			r.ASIS			r.PSIS			L.ASIS			L.PSIS			C7			R_Shoulder			L_Shoulder			R_Sternum			L_Sternum			R_humerus			R_elbow_med			R_elbow_lat			R_forearm			R_wrist_radius			R_wrist_ulna			L_humerus			L_elbow_med			L_elbow_lat			L_forearm			L_wrist_radius			L_wrist_ulna			R_HJC			L_HJC			R_HJC_reg			L_HJC_reg			
		X1	Y1	Z1	X2	Y2	Z2	X3	Y3	Z3	X4	Y4	Z4	X5	Y5	Z5	X6	Y6	Z6	X7	Y7	Z7	X8	Y8	Z8	X9	Y9	Z9	X10	Y10	Z10	X11	Y11	Z11	X12	Y12	Z12	X13	Y13	Z13	X14	Y14	Z14	X15	Y15	Z15	X16	Y16	Z16	X17	Y17	Z17	X18	Y18	Z18	X19	Y19	Z19	X20	Y20	Z20	X21	Y21	Z21	X22	Y22	Z22	X23	Y23	Z23	X24	Y24	Z24	X25	Y25	Z25	X26	Y26	Z26	X27	Y27	Z27	X28	Y28	Z28	X29	Y29	Z29	X30	Y30	Z30	X31	Y31	Z31	X32	Y32	Z32	X33	Y33	Z33	X34	Y34	Z34	X35	Y35	Z35	X36	Y36	Z36	X37	Y37	Z37	X38	Y38	Z38	X39	Y39	Z39	X40	Y40	Z40	X41	Y41	Z41	X42	Y42	Z42	X43	Y43	Z43	X44	Y44	Z44	X45	Y45	Z45	X46	Y46	Z46	X47	Y47	Z47	X48	Y48	Z48	X49	Y49	Z49	X50	Y50	Z50	X51	Y51	Z51	

66	0.65000000	-1118.95845	825.93756	-412.89857	-1094.94035	723.52142	-427.50355	-1266.47084	425.43652	-469.91480	-1352.19646	381.40229	-521.14160	-1157.74302	356.35710	-425.96955	-1098.49454	385.50886	-487.83891	-1124.20962	826.40479	-725.30750	-1131.77524	736.38834	-742.88711	-1269.09285	429.54961	-681.73898	-1346.80096	381.25810	-621.91522	-1159.41795	361.61672	-718.29224	-1098.99324	390.93500	-657.06038	-1144.09296	622.22473	-410.93603	-1149.61453	755.94667	-385.95520	-1214.66599	659.28465	-385.60541	-1216.64813	768.43236	-740.86951	-1246.51032	650.30244	-730.99422	-1145.89131	1148.43408	-383.82757	-1105.10096	1048.63149	-393.23358	-1142.20608	1003.70830	-362.37464	-1246.40449	1102.67563	-377.20333	-1195.62364	999.48316	-381.30400	-1130.38832	1120.65207	-734.06817	-1082.14162	989.53035	-719.12414	-1227.60614	1080.85852	-767.53891	-1185.86379	950.98169	-751.89878	-1143.12122	1315.37618	-436.44122	-1309.23222	1390.53987	-501.56164	-1148.28239	1312.42795	-680.45260	-1313.48573	1392.29777	-613.29635	-891.00121	1776.38910	-563.59010	-873.30200	1680.01910	-394.31841	-884.69014	1683.05002	-735.34160	-856.37569	1626.53613	-534.53396	-860.77896	1624.75226	-589.96547	-1000.80270	1578.79729	-329.97722	-1214.26744	1546.87708	-371.48200	-1192.66348	1541.33161	-291.49836	-1311.06724	1419.12686	-258.00851	-1367.05860	1339.50503	-255.29494	-1386.48474	1381.22163	-245.34019	-998.49976	1621.59899	-817.00718	-1215.41791	1531.05516	-744.13766	-1205.94629	1533.65364	-824.45909	-1241.96673	1475.04037	-856.59019	-1374.86496	1353.02388	-873.56004	-1398.71902	1387.02362	-875.05479	-1259.24821	1234.35837	-451.92455	-1264.73649	1239.70147	-658.74275	-1226.02725	1258.06428	-468.35628	-1232.16408	1260.61515	-629.30475	
67	0.66000000	-1114.02716	822.73591	-411.91155	-1090.60917	720.54428	-426.76373	-1266.48132	425.02369	-470.05785	-1352.29205	381.24068	-521.06594	-1157.89789	356.23246	-425.83760	-1098.60094	385.29748	-487.77898	-1118.39061	823.83925	-724.56074	-1126.62559	734.12829	-742.33877	-1268.76310	429.41575	-681.63391	-1347.11463	381.47187	-621.78885	-1159.43293	361.47812	-718.22007	-1098.96917	390.54233	-656.85388	-1141.10636	619.80285	-410.36851	-1144.84566	753.20681	-384.88726	-1210.79686	657.54886	-384.96559	-1211.06091	767.50431	-740.18548	-1242.83702	649.92040	-730.48963	-1144.85231	1144.69758	-381.66955	-1103.59995	1045.42731	-390.90003	-1140.35010	1000.01330	-360.99004	-1245.10211	1098.31114	-377.14096	-1193.54824	995.48917	-380.58946	-1128.47117	1117.64640	-733.49826	-1078.12248	987.35767	-718.61017	-1225.11934	1076.66704	-766.98305	-1181.61583	947.30928	-751.05049	-1142.10819	1310.73372	-436.32231	-1307.84213	1386.40176	-500.71606	-1147.13846	1307.42769	-680.29359	-1312.18735	1388.27082	-612.32806	-887.08097	1768.80641	-563.54634	-869.68054	1670.06048	-394.32470	-880.26884	1672.60844	-735.02648	-852.89966	1619.12304	-534.24151	-857.16327	1617.17166	-589.38957	-993.53540	1564.09016	-330.79724	-1206.39823	1525.02193	-367.25300	-1182.92284	1518.53369	-288.70462	-1296.04641	1391.54953	-255.67391	-1348.93519	1309.76685	-253.67432	-1369.79885	1350.50253	-242.35969	-991.29217	1605.55755	-816.92609	-1207.26123	1510.27747	-742.72999	-1195.51534	1510.19465	-825.61123	-1228.69516	1449.42930	-856.81854	-1356.25262	1321.66220	-872.52801	-1381.57271	1354.60824	-875.23803	-1258.34524	1230.05429	-451.32695	-1264.18413	1235.38824	-658.13560	-1225.06694	1253.45103	-468.19534	-1231.33659	1256.15367	-629.11655	
68	0.67000000	-1109.14242	819.33259	-411.06161	-1086.36505	717.22162	-426.06623	-1266.48241	424.64935	-470.18725	-1352.42940	381.02110	-520.95616	-1158.01478	356.09568	-425.71045	-1098.69025	385.11044	-487.76326	-1112.31564	821.06728	-723.83884	-1121.34299	731.78857	-741.89680	-1268.34307	429.19815	-681.45120	-1347.28595	381.61777	-621.66535	-1159.40450	361.30621	-718.10380	-1098.92050	389.94695	-656.58623	-1138.20057	617.12961	-409.92488	-1140.10974	750.19543	-383.90027	-1207.52541	655.99809	-384.33485	-1205.26967	766.33168	-739.37655	-1238.88179	649.40504	-729.87135	-1143.08165	1140.97546	-379.94582	-1101.32221	1042.15063	-388.92904	-1137.89885	996.36721	-359.74812	-1243.05240	1093.71503	-376.61857	-1190.97399	991.73033	-379.70781	-1126.14307	1114.55320	-733.03927	-1073.72972	985.07619	-718.14811	-1222.26988	1072.19368	-766.23729	-1176.80893	943.57393	-750.38525	-1140.65318	1306.03863	-436.09587	-1306.22688	1382.06102	-499.96478	-1145.65469	1302.50631	-680.27627	-1310.83262	1384.38001	-611.16981	-883.64371	1761.57105	-563.47732	-866.28038	1660.84656	-394.41986	-876.06269	1662.41449	-734.99247	-849.61251	1612.33464	-534.09391	-853.71287	1610.10825	-588.80416	-985.98351	1549.68428	-331.51889	-1198.11026	1502.12246	-363.02184	-1172.13365	1494.84984	-285.84110	-1279.03062	1362.65392	-253.50584	-1328.20229	1278.66242	-252.20249	-1350.75519	1318.07261	-239.33855	-983.62969	1589.57614	-816.75171	-1198.05223	1488.15751	-743.38211	-1183.83483	1485.89555	-826.85016	-1213.77019	1422.95568	-857.10991	-1334.91321	1289.08060	-871.73038	-1361.95319	1320.63690	-875.34143	-1257.04729	1225.62586	-450.80289	-1263.30985	1231.12144	-657.59659	-1223.52943	1248.34967	-468.02381	-1230.19782	1251.70680	-629.06084	
69	0.68000000	-1104.37009	816.09773	-410.14745	-1082.11017	713.57910	-425.41254	-1266.47330	424.30208	-470.14741	-1352.53774	380.89631	-520.98865	-1158.10253	355.93766	-425.50633	-1098.81746	384.88884	-487.80043	-1105.95668	818.17079	-723.07400	-1115.83200	729.30903	-741.38493	-1267.81533	429.00916	-681.19976	-1347.18870	381.52160	-621.52269	-1159.37287	361.13362	-717.81719	-1098.89925	389.32233	-656.26710	-1135.55048	614.31260	-409.72915	-1135.27442	747.49325	-383.22537	-1204.78804	654.53362	-383.71288	-1199.19096	764.95557	-738.54823	-1234.57498	648.62582	-729.36369	-1140.69829	1137.23896	-378.52745	-1098.17298	1038.89501	-387.61827	-1134.63928	992.89137	-358.75915	-1240.42461	1088.97595	-376.03220	-1187.55420	987.84886	-379.04081	-1123.16958	1111.44669	-732.76156	-1068.94293	982.68772	-717.84987	-1218.75255	1067.62357	-765.58894	-1171.45718	939.78362	-749.69780	-1138.67474	1301.24509	-435.72186	-1304.38566	1377.69807	-499.61188	-1144.18710	1297.52688	-680.11140	-1309.14739	1379.88834	-610.75540	-880.65676	1754.74541	-563.27162	-863.30588	1652.30223	-394.62824	-872.25278	1653.45144	-734.59125	-846.53828	1606.13488	-534.02187	-850.48087	1603.69890	-588.17419	-978.03946	1536.04590	-332.22528	-1188.49532	1478.37763	-359.57048	-1160.00204	1470.75788	-282.98318	-1259.58110	1332.79144	-251.67798	-1304.50458	1246.60228	-251.08576	-1328.75429	1284.34484	-236.48616	-975.50520	1574.04615	-816.42047	-1187.39411	1464.76759	-746.20001	-1170.70321	1460.94852	-828.03527	-1196.95667	1395.79731	-857.21906	-1310.48485	1255.66691	-870.91481	-1339.44081	1285.41772	-875.17687	-1255.40804	1221.15246	-450.30313	-1261.99308	1226.44815	-657.09187	-1221.86945	1243.72636	-467.49213	-1228.77285	1246.90126	-628.67084	
